# xmcd
#
# Track frame offsets: 
#        150
#        19467
#        37598
#        60880
#        88104
#        107352
#        126480
#        143504
#        163153
#        182956
#        210258
#        230720
#
# Disc length: 3303 seconds
#
# Revision: 0
# Processed by: cddbd v1.5.2PL0 Copyright (c) Steve Scherf et al.
# Submitted via: ExactAudioCopy v0.99pb5
#
DISCID=990ce50c
DTITLE=Tinsley Ellis - Speak No Evil
DYEAR=2009
DGENRE=Blues Rock
TTITLE0=Sunlight Of Love
TTITLE1=Slip and Fall
TTITLE2=Speak No Evil
TTITLE3=It Takes What It Takes
TTITLE4=The Other Side
TTITLE5=The Night Is Easy
TTITLE6=Left of Your Mind
TTITLE7=Cold Love, Hot Night
TTITLE8=Amanda
TTITLE9=Loving For Today
TTITLE10=Grow A Pair
TTITLE11=Rockslide
EXTD=
EXTT0=
EXTT1=
EXTT2=
EXTT3=
EXTT4=
EXTT5=
EXTT6=
EXTT7=
EXTT8=
EXTT9=
EXTT10=
EXTT11=
PLAYORDER=
